<svg width="50" height="50" viewBox="0 0 50 50" fill="none" xmlns="http://www.w3.org/2000/svg">
<path fill-rule="evenodd" clip-rule="evenodd" d="M49.6844 17.5907C51.6821 26.8824 43.8869 36.8408 35.034 43.2159C26.1811 49.5909 16.2314 52.341 9.21954 47.6326C2.16855 42.9659 -1.9837 30.8408 0.954215 20.174C3.89213 9.5073 13.9594 0.298895 24.9276 0.00722567C35.8566 -0.284443 47.6866 8.29896 49.6844 17.5907Z" fill="#B17F34"/>
<path d="M22.1246 21.3973C21.7754 20.9601 21.3427 20.6244 20.8264 20.3902C20.3254 20.156 19.7409 20.0389 19.0729 20.0389C18.4048 20.0389 17.7823 20.1716 17.2054 20.4371C16.6436 20.7025 16.1502 21.0772 15.7251 21.5612C15.3152 22.0296 14.9887 22.5917 14.7458 23.2474C14.5181 23.9032 14.4042 24.6136 14.4042 25.3786C14.4042 26.1593 14.5181 26.8775 14.7458 27.5332C14.9887 28.1734 15.3152 28.7354 15.7251 29.2195C16.135 29.6878 16.6133 30.0548 17.1598 30.3202C17.7216 30.5856 18.3213 30.7183 18.959 30.7183C19.6877 30.7183 20.333 30.5622 20.8948 30.2499C21.4565 29.9377 21.9196 29.5005 22.284 28.9384L25.2446 31.2101C24.5614 32.1938 23.696 32.9198 22.6484 33.3882C21.6008 33.8566 20.5228 34.0907 19.4145 34.0907C18.1543 34.0907 16.9928 33.8878 15.9301 33.4818C14.8673 33.0759 13.9487 32.4982 13.1744 31.7488C12.4001 30.9837 11.7928 30.0626 11.3525 28.9853C10.9274 27.908 10.7148 26.7057 10.7148 25.3786C10.7148 24.0515 10.9274 22.8493 11.3525 21.772C11.7928 20.6947 12.4001 19.7813 13.1744 19.0319C13.9487 18.2668 14.8673 17.6814 15.9301 17.2754C16.9928 16.8695 18.1543 16.6665 19.4145 16.6665C19.8699 16.6665 20.3406 16.7133 20.8264 16.807C21.3275 16.8851 21.8133 17.0178 22.284 17.2052C22.7698 17.3925 23.2329 17.6423 23.6732 17.9546C24.1135 18.2668 24.5082 18.6494 24.8574 19.1022L22.1246 21.3973Z" fill="white"/>
<path d="M27.1706 17.0881H33.1601C33.9951 17.0881 34.7846 17.1661 35.5286 17.3223C36.2725 17.4784 36.9178 17.7516 37.4644 18.1419C38.0261 18.5167 38.4664 19.0319 38.7852 19.6876C39.1193 20.3278 39.2863 21.1397 39.2863 22.1233C39.2863 23.0913 39.1344 23.9032 38.8308 24.5589C38.5271 25.2147 38.1096 25.7377 37.5782 26.1281C37.0468 26.5184 36.4168 26.7994 35.688 26.9712C34.9592 27.1273 34.1697 27.2054 33.3195 27.2054H30.7233V33.6692H27.1706V17.0881ZM30.7233 24.114H33.0918C33.4106 24.114 33.7143 24.0827 34.0027 24.0203C34.3064 23.9578 34.5721 23.8563 34.7998 23.7158C35.0427 23.5597 35.2325 23.3567 35.3692 23.1069C35.521 22.8415 35.5969 22.5136 35.5969 22.1233C35.5969 21.7017 35.4982 21.3661 35.3008 21.1162C35.1187 20.8508 34.8757 20.6478 34.5721 20.5073C34.2836 20.3668 33.9572 20.2809 33.5928 20.2497C33.2284 20.2029 32.8792 20.1795 32.5452 20.1795H30.7233V24.114Z" fill="white"/>
</svg>
