<svg width="44" height="44" viewBox="0 0 44 44" fill="none" xmlns="http://www.w3.org/2000/svg">
<path fill-rule="evenodd" clip-rule="evenodd" d="M43.7222 15.4798C45.4803 23.6565 38.6205 32.4199 30.8299 38.03C23.0394 43.64 14.2836 46.06 8.11319 41.9167C1.90833 37.81 -1.74565 27.1399 0.839709 17.7532C3.42507 8.36642 12.2842 0.263027 21.9363 0.00635859C31.5538 -0.25031 41.9642 7.30308 43.7222 15.4798Z" fill="#B17F34"/>
<path d="M19.4702 18.8296C19.1629 18.4449 18.7822 18.1495 18.3279 17.9434C17.887 17.7373 17.3726 17.6342 16.7847 17.6342C16.1969 17.6342 15.6491 17.751 15.1414 17.9846C14.647 18.2182 14.2128 18.5479 13.8387 18.9739C13.478 19.386 13.1907 19.8807 12.9769 20.4577C12.7765 21.0348 12.6763 21.6599 12.6763 22.3332C12.6763 23.0201 12.7765 23.6522 12.9769 24.2292C13.1907 24.7926 13.478 25.2872 13.8387 25.7131C14.1994 26.1253 14.6203 26.4482 15.1013 26.6817C15.5956 26.9153 16.1234 27.0321 16.6845 27.0321C17.3258 27.0321 17.8937 26.8947 18.388 26.6199C18.8824 26.3451 19.2899 25.9604 19.6105 25.4658L22.2159 27.4649C21.6146 28.3305 20.8531 28.9694 19.9312 29.3816C19.0093 29.7937 18.0607 29.9998 17.0854 29.9998C15.9764 29.9998 14.9543 29.8212 14.0191 29.464C13.0838 29.1068 12.2755 28.5984 11.5941 27.9389C10.9127 27.2657 10.3783 26.455 9.99084 25.507C9.61674 24.559 9.42969 23.501 9.42969 22.3332C9.42969 21.1653 9.61674 20.1074 9.99084 19.1593C10.3783 18.2113 10.9127 17.4075 11.5941 16.748C12.2755 16.0748 13.0838 15.5596 14.0191 15.2023C14.9543 14.8451 15.9764 14.6665 17.0854 14.6665C17.4862 14.6665 17.9004 14.7077 18.3279 14.7902C18.7688 14.8589 19.1963 14.9756 19.6105 15.1405C20.0381 15.3054 20.4456 15.5252 20.833 15.8C21.2205 16.0748 21.5679 16.4114 21.8752 16.8099L19.4702 18.8296Z" fill="white"/>
<path d="M23.9107 15.0375H29.1815C29.9163 15.0375 30.6111 15.1062 31.2658 15.2436C31.9204 15.381 32.4883 15.6214 32.9693 15.9649C33.4636 16.2946 33.8511 16.748 34.1316 17.3251C34.4256 17.8884 34.5725 18.6029 34.5725 19.4685C34.5725 20.3203 34.4389 21.0348 34.1717 21.6118C33.9045 22.1889 33.5371 22.6492 33.0695 22.9927C32.6018 23.3362 32.0474 23.5835 31.4061 23.7346C30.7648 23.872 30.07 23.9407 29.3218 23.9407H27.0371V29.6289H23.9107V15.0375ZM27.0371 21.2203H29.1214C29.402 21.2203 29.6692 21.1928 29.923 21.1378C30.1902 21.0829 30.4241 20.9936 30.6245 20.8699C30.8382 20.7325 31.0052 20.5539 31.1255 20.3341C31.2591 20.1005 31.3259 19.812 31.3259 19.4685C31.3259 19.0975 31.2391 18.8021 31.0654 18.5823C30.905 18.3487 30.6913 18.1701 30.4241 18.0464C30.1702 17.9228 29.8829 17.8472 29.5623 17.8197C29.2416 17.7785 28.9343 17.7579 28.6404 17.7579H27.0371V21.2203Z" fill="white"/>
</svg>
